<?xml version="1.0" standalone="no"?><!DOCTYPE svg PUBLIC "-//W3C//DTD SVG 1.1//EN" "http://www.w3.org/Graphics/SVG/1.1/DTD/svg11.dtd"><svg t="1622984375132" class="icon" viewBox="0 0 1102 1024" version="1.1" xmlns="http://www.w3.org/2000/svg" p-id="6776" xmlns:xlink="http://www.w3.org/1999/xlink" width="215.234375" height="200"><defs><style type="text/css"></style></defs><path d="M557.492747 693.106794a204.728975 204.728975 0 0 0 192.917688-111.026097A176.381886 176.381886 0 0 0 708.67722 374.989464a211.028328 211.028328 0 0 0-218.1151-44.095471 188.193173 188.193173 0 0 0-127.561899 174.019629 179.531563 179.531563 0 0 0 55.119339 131.498995 207.091232 207.091232 0 0 0 139.373187 56.694177z m-206.303813 198.429622a559.855004 559.855004 0 0 1-114.175775-78.741913 405.520854 405.520854 0 0 1-148.034797-218.1151A433.080524 433.080524 0 0 1 72.44256 472.629437c0-262.210572 244.099931-472.45148 544.894041-472.45148A557.492747 557.492747 0 0 1 1102.386787 259.238852a507.885341 507.885341 0 0 0-340.952485-126.774481h-10.236448a559.855004 559.855004 0 0 1 114.963193 74.804818 405.520854 405.520854 0 0 1 148.034797 222.052196 433.080524 433.080524 0 0 1 15.748383 122.049965c0 262.210572-244.099931 472.45148-544.894041 472.451481A557.492747 557.492747 0 0 1 0 764.761936a507.885341 507.885341 0 0 0 340.952485 126.77448z" fill="#eb5744" p-id="6777"></path></svg>